<svg xmlns="http://www.w3.org/2000/svg" viewBox="0 0 651.56 235.75"><defs><style>.cls-1{fill:#fff;}.cls-2{fill:#f6ec28;}.cls-3{fill:#1aabe2;}.cls-4{fill:#5759a6;}.cls-5{fill:#ea118d;}.cls-6{fill:#29b573;}.cls-7{fill:#912a8d;}</style></defs><title>Asset 1</title><g id="Layer_2" data-name="Layer 2"><g id="Layer_1-2" data-name="Layer 1"><path class="cls-1" d="M68,74.77v8C56.88,69.22,39.2,71.65,39.2,71.65-2.4,76.85,0,117.76,0,117.76c3.46,44.72,39.52,43,39.52,43C61,160.75,68,149.65,68,149.65v8H97.79V74.77ZM50,135.44c-10.53,0-19.07-8.23-19.07-18.38S39.42,98.69,50,98.69,69,106.92,69,117.06,60.48,135.44,50,135.44Z"/><path class="cls-1" d="M448.87,74.77v8c-11.1-13.52-28.78-11.09-28.78-11.09-41.6,5.2-39.17,46.11-39.17,46.11,3.47,44.72,39.52,43,39.52,43,21.49,0,28.43-11.1,28.43-11.1v8h29.81V74.77Zm-18,60.67c-10.53,0-19.07-8.23-19.07-18.38s8.54-18.37,19.07-18.37,19.07,8.23,19.07,18.37S441.37,135.44,430.84,135.44Z"/><path class="cls-1" d="M368.9,157.63V74.77H339.08v8C328,69.22,310.31,71.65,310.31,71.65c-41.6,5.2-39.18,46.11-39.18,46.11,3.47,44.72,39.53,43,39.53,43,21.49,0,28.42-11.1,28.42-11.1,2.43,29.82-19.06,27-19.06,27A16.52,16.52,0,0,1,305.46,168H272.52c9,34,47.48,31.89,47.48,31.89C371.65,199.92,368.9,157.63,368.9,157.63ZM320,135.44c-10.53,0-19.07-8.23-19.07-18.38S309.49,98.69,320,98.69s19.06,8.23,19.06,18.37S330.55,135.44,320,135.44Z"/><path class="cls-1" d="M171.64,71.48a31.71,31.71,0,0,0-25.31,12.4V74.77H115.82V199.92h30.51V149.15a37.17,37.17,0,0,0,25,11.61c41.6,0,42-40.58,42-40.58C213.24,69.22,171.64,71.48,171.64,71.48Zm-7.8,64c-10.63,0-19.25-8.3-19.25-18.54s8.62-18.54,19.25-18.54,19.24,8.3,19.24,18.54S174.46,135.44,163.84,135.44Z"/><rect class="cls-1" x="227.8" y="74.77" width="29.47" height="83.2"/><rect class="cls-1" x="227.8" y="49.81" width="29.47" height="14.21"/><polygon class="cls-1" points="547.56 74.77 529.99 74.77 529.99 49.81 500.41 49.81 500.41 74.77 490.7 74.77 490.7 98.69 500.41 98.69 500.41 157.97 529.99 157.97 529.99 98.69 547.56 98.69 547.56 74.77"/><path class="cls-1" d="M611.35,132.66s-1.56,7.4-16,7.4c0,0-16.33-.92-16.33-18.49h61.94s6.94-50.09-46.68-50.09c0,0-44.84-3.07-44.84,50.09,0,0,.75,39.19,45.91,39.19,0,0,37.29,2.88,45.91-28.1ZM598.09,90.6c15.4,0,17,13.29,17,13.29H580.38C580.38,90.6,598.09,90.6,598.09,90.6Z"/><circle class="cls-2" cx="29.61" cy="154.16" r="9.48"/><circle class="cls-3" cx="136.39" cy="45.53" r="9.48"/><circle class="cls-4" cx="352.72" cy="226.27" r="9.48"/><circle class="cls-5" cx="388.31" cy="82.05" r="9.48"/><circle class="cls-6" cx="497.4" cy="9.48" r="9.48"/><circle class="cls-7" cx="642.09" cy="118.8" r="9.48"/><path class="cls-1" d="M362.2,212.63l4.94-8.22c3.23-5.19,7.69-12.69,13.3-21.53s12-19.21,19.14-30.19,14.71-22.68,22.36-34.34,15.43-23.25,22.78-34.07S459.05,63.44,465,54.81,476,39.13,479.53,34.13l5.63-7.78-5,8.23c-3.22,5.18-7.68,12.69-13.29,21.52s-12,19.22-19.14,30.2S433.06,109,425.41,120.64,410,143.88,402.63,154.7s-14.33,20.84-20.25,29.47-11.06,15.68-14.56,20.68Z"/><path class="cls-1" d="M50.18,159l12.24,2.31c7.78,1.56,18.91,3.61,32.22,6.38s28.85,5.84,45.44,9.45l52,11.27L244,200.23c16.56,3.75,31.94,7.57,45.17,10.68s24.18,6,31.88,7.87l12.07,3.1-12.25-2.31c-7.77-1.55-18.91-3.61-32.21-6.37s-28.85-5.83-45.45-9.45l-52-11.28L139.3,180.66c-16.56-3.76-32-7.57-45.17-10.69S70,164,62.25,162.11Z"/><path class="cls-1" d="M513.35,21.73s1.54.94,4.16,2.67,6.39,4.2,10.81,7.29,9.55,6.7,15,10.67S554.46,50.65,560.19,55s11.35,8.79,16.58,13,10.1,8.2,14.21,11.68,7.46,6.48,9.84,8.53,3.67,3.32,3.67,3.32-1.53-.94-4.16-2.67-6.39-4.2-10.8-7.28-9.56-6.7-15-10.68-11.16-8.29-16.88-12.61-11.35-8.79-16.58-13-10.1-8.2-14.21-11.68S519.41,27.09,517,25,513.35,21.73,513.35,21.73Z"/></g></g></svg>