<?xml version="1.0" encoding="utf-8"?>
<!-- Generator: Adobe Illustrator 20.1.0, SVG Export Plug-In . SVG Version: 6.00 Build 0)  -->
<svg version="1.1" id="Layer_1" xmlns="http://www.w3.org/2000/svg" xmlns:xlink="http://www.w3.org/1999/xlink" x="0px" y="0px"
	 viewBox="0 0 171.9 34.9" style="enable-background:new 0 0 171.9 34.9;" xml:space="preserve">
<style type="text/css">
	.st0{fill:#FFFFFF;}
	.st1{fill:#F47B20;}
	.st2{fill:none;}
</style>
<g>
	<path class="st0" d="M73.7,4.1C70.9,1.4,67.6,0,63.6,0c-0.1,0-0.1,0-0.2,0c-2.5,0-4.9,0.6-7,1.9c-2.2,1.3-3.9,3-5.1,5.2
		c-1.3,2.2-1.9,4.6-1.9,7.2c0,3.9,1.4,7.2,4.1,9.9c2.7,2.7,6.1,4.1,10.1,4.1l0,0l0,0c3.9,0,7.3-1.4,10-4.1c2.8-2.7,4.1-6.1,4.1-10
		C77.8,10.2,76.4,6.8,73.7,4.1z M69.3,24.2c-1.8,1-3.7,1.5-5.8,1.5c0,0,0,0-0.1,0c-3.1,0-5.8-1.1-8-3.3s-3.3-4.9-3.3-8.1
		c0-2.2,0.5-4.1,1.5-5.9s2.4-3.2,4.2-4.2s3.7-1.6,5.7-1.6c0,0,0,0,0.1,0c2,0,3.9,0.5,5.7,1.6c1.8,1,3.2,2.4,4.2,4.2
		c1,1.7,1.5,3.7,1.5,5.8s-0.5,4.1-1.5,5.9C72.5,21.8,71.1,23.2,69.3,24.2z"/>
</g>
<g>
	<polygon class="st1" points="35.4,1.7 34.4,1.7 32.4,1.7 25,20.4 17.6,0.3 9.7,20.4 3.1,1.7 0,1.7 9.6,28 17.5,7.9 24.9,28 
		34.4,4.2 	"/>
	<path class="st1" d="M47.2,15.5c-1.2-1-2.5-1.8-3.9-2.4l-0.7-0.3l-0.7-0.3c-1.3-0.7-2.3-1.3-3.2-1.8c-0.8-0.6-1.2-1.4-1.2-2.5
		s0.4-2,1.3-2.7c0.8-0.7,1.9-1,3.1-1c0.8,0,1.4,0.2,2,0.5s1.1,0.8,1.6,1.5l0.3,0.4C45.9,7,46,7.1,46.1,7.3l2.2-1.4
		c-0.7-1.3-1.6-2.2-2.7-2.9c-1.1-0.7-2.3-1-3.5-1c-2.1,0-3.9,0.6-5.2,1.8c-1.4,1.2-2,2.7-2,4.6c0,1.8,0.6,3.1,1.8,4.1
		s2.5,1.8,3.9,2.4l0.5,0.2l0.4,0.2c1.3,0.7,2.5,1.3,3.5,2s1.4,1.6,1.4,2.9c0,1.5-0.5,2.7-1.4,3.6c-1,1-2.2,1.4-3.7,1.4
		c-1.3,0-2.4-0.4-3.2-1.2c-0.9-0.8-1.5-1.9-1.8-3.5L34.6,21l-1,0.3c0.2,1,0.6,1.9,1,2.7c0.5,0.8,1,1.5,1.7,2.1
		c1.3,1.1,3,1.7,5.1,1.7c2.2,0,4-0.7,5.6-2.2c1.5-1.5,2.3-3.3,2.3-5.5C49,18,48.4,16.5,47.2,15.5z"/>
</g>
<path class="st1" d="M69.3,24.2c-1.8,1-3.7,1.5-5.8,1.5c0,0,0,0-0.1,0c-3.1,0-5.8-1.1-8-3.3s-3.3-4.9-3.3-8.1c0-2.2,0.5-4.1,1.5-5.9
	s2.4-3.2,4.2-4.2s3.7-1.6,5.7-1.6c0,0,0,0,0.1,0c2,0,3.9,0.5,5.7,1.6c1.8,1,3.2,2.4,4.2,4.2c1,1.7,1.5,3.7,1.5,5.8s-0.5,4.1-1.5,5.9
	C72.5,21.8,71.1,23.2,69.3,24.2z"/>
<path d="M63.5,8.7l5,12.2l3.3-5.9H75c0-0.3,0-0.5,0-0.8s0-0.6,0-0.9h-4.2l-2,3.7L63.6,4.4L59,14.8h-6.8c0,0.6,0.1,1.1,0.2,1.7h7.7
	L63.5,8.7z"/>
<g>
	<path class="st2" d="M165.2,15.7c-1.5-0.8-3-1.3-4.7-1.3c-1.6,0-3.1,0.4-4.6,1.3c-1.4,0.8-2.6,2-3.4,3.4c-0.8,1.4-1.2,3-1.2,4.7
		c0,1.3,0.2,2.5,0.7,3.6c0.4,1.1,1.1,2.1,2,3s1.9,1.6,3,2s2.3,0.7,3.5,0.7c1.7,0,3.3-0.4,4.7-1.2s2.6-1.9,3.4-3.4
		c0.8-1.4,1.2-3,1.2-4.7c0-1.7-0.4-3.3-1.2-4.7C167.8,17.7,166.6,16.5,165.2,15.7z"/>
	<polygon class="st1" points="91.1,15 95.8,15 95.8,34.4 97.8,34.4 97.8,15 102.6,15 102.6,13.1 91.1,13.1 	"/>
	<polygon class="st1" points="105,34.4 117,34.4 117,32.3 106.9,32.3 106.9,23.8 117,23.8 117,22 106.9,22 106.9,15 117.1,15 
		117.1,13.1 105,13.1 	"/>
	<path class="st1" d="M130.6,32.6L130.6,32.6c-0.1-0.1-0.2-0.2-0.2-0.3h-8.9V13.1h-1.9v21.2h12.8C131.7,33.9,131.1,33.3,130.6,32.6z
		"/>
	<path class="st1" d="M148.6,30l-0.1-0.1l-0.1,0.1c-0.9,1-2,1.8-3.1,2.3c-1.3,0.6-2.7,0.9-4.2,0.9c-2.8,0-5.1-0.9-6.9-2.7
		c-1.8-1.8-2.7-4-2.7-6.7c0-1.8,0.4-3.4,1.2-4.8s2-2.5,3.5-3.4c1.5-0.8,3.1-1.3,4.8-1.3c1.6,0,3.1,0.3,4.4,1c1.1,0.5,2.2,1.3,3,2.3
		l0.1,0.1l0.1-0.1c0.1-0.2,0.2-0.5,0.4-0.7c0.2-0.3,0.3-0.5,0.5-0.8V16l0,0c-0.9-0.9-1.9-1.7-3.1-2.3c-1.6-0.8-3.4-1.2-5.3-1.2
		c-1.6,0-3.1,0.3-4.5,0.8s-2.6,1.3-3.7,2.4s-1.9,2.2-2.4,3.5s-0.8,2.7-0.8,4.3c0,1.5,0.2,2.8,0.7,4.1c0.4,1.2,1.1,2.4,2,3.4
		c1.1,1.2,2.3,2.2,3.8,2.8s3.1,0.9,5,0.9s3.7-0.4,5.3-1.1c1.2-0.6,2.2-1.3,3.1-2.2l0,0v-0.1C149.2,30.9,148.9,30.4,148.6,30z"/>
	<path class="st1" d="M171.1,19.4c-0.5-1.3-1.4-2.5-2.4-3.6c-1.1-1.1-2.3-1.9-3.6-2.4s-2.8-0.8-4.4-0.8c-2,0-3.8,0.5-5.5,1.5
		s-3.1,2.4-4,4.1c-1,1.7-1.5,3.6-1.5,5.7c0,1.5,0.3,2.9,0.8,4.2c0.5,1.3,1.4,2.5,2.4,3.6c1.1,1.1,2.3,1.9,3.6,2.4s2.8,0.8,4.4,0.8
		c1.5,0,3-0.3,4.3-0.8s2.5-1.4,3.6-2.4c1.1-1.1,1.9-2.3,2.4-3.6c0.5-1.3,0.8-2.8,0.8-4.3C171.9,22.2,171.7,20.7,171.1,19.4z
		 M168.8,28.4c-0.8,1.4-1.9,2.5-3.4,3.4c-1.4,0.8-3,1.2-4.7,1.2c-1.3,0-2.4-0.2-3.5-0.7c-1.1-0.4-2.1-1.1-3-2s-1.6-1.9-2-3
		s-0.7-2.3-0.7-3.6c0-1.7,0.4-3.3,1.2-4.7s1.9-2.6,3.4-3.4c1.4-0.8,3-1.3,4.6-1.3s3.2,0.4,4.7,1.3c1.5,0.8,2.6,2,3.4,3.3
		c0.8,1.4,1.2,3,1.2,4.7C170,25.4,169.6,27,168.8,28.4z"/>
</g>
<g>
	<path class="st0" d="M87.4,32.3h-9.5l5.2-5.6c1.6-1.8,2.7-3.2,3.3-4.2c0.6-1,0.8-2.1,0.8-3.3c0-1.7-0.6-3.1-1.8-4.4
		c-1.2-1.2-2.7-1.9-4.6-1.9c-0.7,0-1.4,0.1-2,0.3c0,0.2,0,0.4,0,0.6c0,0.5,0,1-0.1,1.5c0.6-0.3,1.2-0.4,2-0.4c1.3,0,2.3,0.4,3.2,1.3
		c0.9,0.8,1.3,1.8,1.3,3c0,0.9-0.2,1.8-0.7,2.6c-0.5,0.8-1.5,2.1-3.1,3.8l-7.9,8.6h14c-0.1-0.3-0.1-0.6-0.1-1
		C87.2,33,87.3,32.6,87.4,32.3z"/>
</g>
<circle class="st1" cx="91.6" cy="33.3" r="1.5"/>
</svg>
