<?xml version="1.0" encoding="UTF-8"?>
<!-- Generator: Adobe Illustrator 20.1.0, SVG Export Plug-In . SVG Version: 6.00 Build 0)  -->
<svg version="1.1" id="Layer_1" xmlns="http://www.w3.org/2000/svg" xmlns:xlink="http://www.w3.org/1999/xlink" x="0px" y="0px" viewBox="0 0 171.9 34.9" style="enable-background:new 0 0 171.9 34.9;" xml:space="preserve">
<style type="text/css">
	.st0{fill:#FFFFFF;}
	.st1{fill:#F47B20;}
	.st2{fill:none;}
</style>
<g>
	<path class="st0" d="M73.7,4.1C70.9,1.4,67.6,0,63.6,0c-0.1,0-0.1,0-0.2,0c-2.5,0-4.9,0.6-7,1.9c-2.2,1.3-3.9,3-5.1,5.2   c-1.3,2.2-1.9,4.6-1.9,7.2c0,3.9,1.4,7.2,4.1,9.9c2.7,2.7,6.1,4.1,10.1,4.1l0,0l0,0c3.9,0,7.3-1.4,10-4.1c2.8-2.7,4.1-6.1,4.1-10   C77.8,10.2,76.4,6.8,73.7,4.1z M69.3,24.2c-1.8,1-3.7,1.5-5.8,1.5c0,0,0,0-0.1,0c-3.1,0-5.8-1.1-8-3.3s-3.3-4.9-3.3-8.1   c0-2.2,0.5-4.1,1.5-5.9s2.4-3.2,4.2-4.2s3.7-1.6,5.7-1.6c0,0,0,0,0.1,0c2,0,3.9,0.5,5.7,1.6c1.8,1,3.2,2.4,4.2,4.2   c1,1.7,1.5,3.7,1.5,5.8s-0.5,4.1-1.5,5.9C72.5,21.8,71.1,23.2,69.3,24.2z"/>
</g>
<g>
	<polygon class="st1" points="35.4,1.7 34.4,1.7 32.4,1.7 25,20.4 17.6,0.3 9.7,20.4 3.1,1.7 0,1.7 9.6,28 17.5,7.9 24.9,28    34.4,4.2  "/>
	<path class="st1" d="M47.2,15.5c-1.2-1-2.5-1.8-3.9-2.4l-0.7-0.3l-0.7-0.3c-1.3-0.7-2.3-1.3-3.2-1.8c-0.8-0.6-1.2-1.4-1.2-2.5   s0.4-2,1.3-2.7c0.8-0.7,1.9-1,3.1-1c0.8,0,1.4,0.2,2,0.5s1.1,0.8,1.6,1.5l0.3,0.4C45.9,7,46,7.1,46.1,7.3l2.2-1.4   c-0.7-1.3-1.6-2.2-2.7-2.9c-1.1-0.7-2.3-1-3.5-1c-2.1,0-3.9,0.6-5.2,1.8c-1.4,1.2-2,2.7-2,4.6c0,1.8,0.6,3.1,1.8,4.1   s2.5,1.8,3.9,2.4l0.5,0.2l0.4,0.2c1.3,0.7,2.5,1.3,3.5,2s1.4,1.6,1.4,2.9c0,1.5-0.5,2.7-1.4,3.6c-1,1-2.2,1.4-3.7,1.4   c-1.3,0-2.4-0.4-3.2-1.2c-0.9-0.8-1.5-1.9-1.8-3.5L34.6,21l-1,0.3c0.2,1,0.6,1.9,1,2.7c0.5,0.8,1,1.5,1.7,2.1   c1.3,1.1,3,1.7,5.1,1.7c2.2,0,4-0.7,5.6-2.2c1.5-1.5,2.3-3.3,2.3-5.5C49,18,48.4,16.5,47.2,15.5z"/>
</g>
<path class="st1" d="M69.3,24.2c-1.8,1-3.7,1.5-5.8,1.5c0,0,0,0-0.1,0c-3.1,0-5.8-1.1-8-3.3s-3.3-4.9-3.3-8.1c0-2.2,0.5-4.1,1.5-5.9  s2.4-3.2,4.2-4.2s3.7-1.6,5.7-1.6c0,0,0,0,0.1,0c2,0,3.9,0.5,5.7,1.6c1.8,1,3.2,2.4,4.2,4.2c1,1.7,1.5,3.7,1.5,5.8s-0.5,4.1-1.5,5.9  C72.5,21.8,71.1,23.2,69.3,24.2z"/>
<path d="M63.5,8.7l5,12.2l3.3-5.9H75c0-0.3,0-0.5,0-0.8s0-0.6,0-0.9h-4.2l-2,3.7L63.6,4.4L59,14.8h-6.8c0,0.6,0.1,1.1,0.2,1.7h7.7  L63.5,8.7z"/>
<g>
	<path class="st2" d="M165.2,15.7c-1.5-0.8-3-1.3-4.7-1.3c-1.6,0-3.1,0.4-4.6,1.3c-1.4,0.8-2.6,2-3.4,3.4c-0.8,1.4-1.2,3-1.2,4.7   c0,1.3,0.2,2.5,0.7,3.6c0.4,1.1,1.1,2.1,2,3s1.9,1.6,3,2s2.3,0.7,3.5,0.7c1.7,0,3.3-0.4,4.7-1.2s2.6-1.9,3.4-3.4   c0.8-1.4,1.2-3,1.2-4.7c0-1.7-0.4-3.3-1.2-4.7C167.8,17.7,166.6,16.5,165.2,15.7z"/>
	<polygon class="st1" points="91.1,15 95.8,15 95.8,34.4 97.8,34.4 97.8,15 102.6,15 102.6,13.1 91.1,13.1  "/>
	<polygon class="st1" points="105,34.4 117,34.4 117,32.3 106.9,32.3 106.9,23.8 117,23.8 117,22 106.9,22 106.9,15 117.1,15    117.1,13.1 105,13.1  "/>
	<path class="st1" d="M130.6,32.6L130.6,32.6c-0.1-0.1-0.2-0.2-0.2-0.3h-8.9V13.1h-1.9v21.2h12.8C131.7,33.9,131.1,33.3,130.6,32.6z   "/>
	<path class="st1" d="M148.6,30l-0.1-0.1l-0.1,0.1c-0.9,1-2,1.8-3.1,2.3c-1.3,0.6-2.7,0.9-4.2,0.9c-2.8,0-5.1-0.9-6.9-2.7   c-1.8-1.8-2.7-4-2.7-6.7c0-1.8,0.4-3.4,1.2-4.8s2-2.5,3.5-3.4c1.5-0.8,3.1-1.3,4.8-1.3c1.6,0,3.1,0.3,4.4,1c1.1,0.5,2.2,1.3,3,2.3   l0.1,0.1l0.1-0.1c0.1-0.2,0.2-0.5,0.4-0.7c0.2-0.3,0.3-0.5,0.5-0.8V16l0,0c-0.9-0.9-1.9-1.7-3.1-2.3c-1.6-0.8-3.4-1.2-5.3-1.2   c-1.6,0-3.1,0.3-4.5,0.8s-2.6,1.3-3.7,2.4s-1.9,2.2-2.4,3.5s-0.8,2.7-0.8,4.3c0,1.5,0.2,2.8,0.7,4.1c0.4,1.2,1.1,2.4,2,3.4   c1.1,1.2,2.3,2.2,3.8,2.8s3.1,0.9,5,0.9s3.7-0.4,5.3-1.1c1.2-0.6,2.2-1.3,3.1-2.2l0,0v-0.1C149.2,30.9,148.9,30.4,148.6,30z"/>
	<path class="st1" d="M171.1,19.4c-0.5-1.3-1.4-2.5-2.4-3.6c-1.1-1.1-2.3-1.9-3.6-2.4s-2.8-0.8-4.4-0.8c-2,0-3.8,0.5-5.5,1.5   s-3.1,2.4-4,4.1c-1,1.7-1.5,3.6-1.5,5.7c0,1.5,0.3,2.9,0.8,4.2c0.5,1.3,1.4,2.5,2.4,3.6c1.1,1.1,2.3,1.9,3.6,2.4s2.8,0.8,4.4,0.8   c1.5,0,3-0.3,4.3-0.8s2.5-1.4,3.6-2.4c1.1-1.1,1.9-2.3,2.4-3.6c0.5-1.3,0.8-2.8,0.8-4.3C171.9,22.2,171.7,20.7,171.1,19.4z    M168.8,28.4c-0.8,1.4-1.9,2.5-3.4,3.4c-1.4,0.8-3,1.2-4.7,1.2c-1.3,0-2.4-0.2-3.5-0.7c-1.1-0.4-2.1-1.1-3-2s-1.6-1.9-2-3   s-0.7-2.3-0.7-3.6c0-1.7,0.4-3.3,1.2-4.7s1.9-2.6,3.4-3.4c1.4-0.8,3-1.3,4.6-1.3s3.2,0.4,4.7,1.3c1.5,0.8,2.6,2,3.4,3.3   c0.8,1.4,1.2,3,1.2,4.7C170,25.4,169.6,27,168.8,28.4z"/>
</g>
<g>
	<path class="st0" d="M87.4,32.3h-9.5l5.2-5.6c1.6-1.8,2.7-3.2,3.3-4.2c0.6-1,0.8-2.1,0.8-3.3c0-1.7-0.6-3.1-1.8-4.4   c-1.2-1.2-2.7-1.9-4.6-1.9c-0.7,0-1.4,0.1-2,0.3c0,0.2,0,0.4,0,0.6c0,0.5,0,1-0.1,1.5c0.6-0.3,1.2-0.4,2-0.4c1.3,0,2.3,0.4,3.2,1.3   c0.9,0.8,1.3,1.8,1.3,3c0,0.9-0.2,1.8-0.7,2.6c-0.5,0.8-1.5,2.1-3.1,3.8l-7.9,8.6h14c-0.1-0.3-0.1-0.6-0.1-1   C87.2,33,87.3,32.6,87.4,32.3z"/>
</g>
<circle class="st1" cx="91.6" cy="33.3" r="1.5"/>
<style xmlns="http://www.w3.org/1999/xhtml" charset="utf-8" type="text/css" class="firebugResetStyles">/* See license.txt for terms of usage */
/** reset styling **/
.firebugResetStyles {
    z-index: 2147483646 !important;
    top: 0 !important;
    left: 0 !important;
    display: block !important;
    border: 0 none !important;
    margin: 0 !important;
    padding: 0 !important;
    outline: 0 !important;
    min-width: 0 !important;
    max-width: none !important;
    min-height: 0 !important;
    max-height: none !important;
    position: fixed !important;
    transform: rotate(0deg) !important;
    transform-origin: 50% 50% !important;
    border-radius: 0 !important;
    box-shadow: none !important;
    background: transparent none !important;
    pointer-events: none !important;
    white-space: normal !important;
}
style.firebugResetStyles {
    display: none !important;
}

.firebugBlockBackgroundColor {
    background-color: transparent !important;
}

.firebugResetStyles:before, .firebugResetStyles:after {
    content: "" !important;
}
/**actual styling to be modified by firebug theme**/
.firebugCanvas {
    display: none !important;
}

/* * * * * * * * * * * * * * * * * * * * * * * * * * * * * * * * * * * * * * * * * * * * * * * * */
.firebugLayoutBox {
    width: auto !important;
    position: static !important;
}

.firebugLayoutBoxOffset {
    opacity: 0.8 !important;
    position: fixed !important;
}

.firebugLayoutLine {
    opacity: 0.4 !important;
    background-color: #000000 !important;
}

.firebugLayoutLineLeft, .firebugLayoutLineRight {
    width: 1px !important;
    height: 100% !important;
}

.firebugLayoutLineTop, .firebugLayoutLineBottom {
    width: 100% !important;
    height: 1px !important;
}

.firebugLayoutLineTop {
    margin-top: -1px !important;
    border-top: 1px solid #999999 !important;
}

.firebugLayoutLineRight {
    border-right: 1px solid #999999 !important;
}

.firebugLayoutLineBottom {
    border-bottom: 1px solid #999999 !important;
}

.firebugLayoutLineLeft {
    margin-left: -1px !important;
    border-left: 1px solid #999999 !important;
}

/* * * * * * * * * * * * * * * * * * * * * * * * * * * * * * * * * * * * * * * * * * * * * * * * */
.firebugLayoutBoxParent {
    border-top: 0 none !important;
    border-right: 1px dashed #E00 !important;
    border-bottom: 1px dashed #E00 !important;
    border-left: 0 none !important;
    position: fixed !important;
    width: auto !important;
}

.firebugRuler{
    position: absolute !important;
}

.firebugRulerH {
    top: -15px !important;
    left: 0 !important;
    width: 100% !important;
    height: 14px !important;
    background: url("data:image/png,%89PNG%0D%0A%1A%0A%00%00%00%0DIHDR%00%00%13%88%00%00%00%0E%08%02%00%00%00L%25a%0A%00%00%00%04gAMA%00%00%D6%D8%D4OX2%00%00%00%19tEXtSoftware%00Adobe%20ImageReadyq%C9e%3C%00%00%04%F8IDATx%DA%EC%DD%D1n%E2%3A%00E%D1%80%F8%FF%EF%E2%AF2%95%D0D4%0E%C1%14%B0%8Fa-%E9%3E%CC%9C%87n%B9%81%A6W0%1C%A6i%9A%E7y%0As8%1CT%A9R%A5J%95*U%AAT%A9R%A5J%95*U%AAT%A9R%A5J%95*U%AAT%A9R%A5J%95*U%AAT%A9R%A5J%95*U%AAT%A9R%A5J%95*U%AAT%A9R%A5J%95*U%AATE9%FE%FCw%3E%9F%AF%2B%2F%BA%97%FDT%1D~K(%5C%9D%D5%EA%1B%5C%86%B5%A9%BDU%B5y%80%ED%AB*%03%FAV9%AB%E1%CEj%E7%82%EF%FB%18%BC%AEJ8%AB%FA'%D2%BEU9%D7U%ECc0%E1%A2r%5DynwVi%CFW%7F%BB%17%7Dy%EACU%CD%0E%F0%FA%3BX%FEbV%FEM%9B%2B%AD%BE%AA%E5%95v%AB%AA%E3E5%DCu%15rV9%07%B5%7F%B5w%FCm%BA%BE%AA%FBY%3D%14%F0%EE%C7%60%0EU%AAT%A9R%A5J%95*U%AAT%A9R%A5J%95*U%AAT%A9R%A5J%95*U%AAT%A9R%A5J%95*U%AAT%A9R%A5JU%88%D3%F5%1F%AE%DF%3B%1B%F2%3E%DAUCNa%F92%D02%AC%7Dm%F9%3A%D4%F2%8B6%AE*%BF%5C%C2Ym~9g5%D0Y%95%17%7C%C8c%B0%7C%18%26%9CU%CD%13i%F7%AA%90%B3Z%7D%95%B4%C7%60%E6E%B5%BC%05%B4%FBY%95U%9E%DB%FD%1C%FC%E0%9F%83%7F%BE%17%7DkjMU%E3%03%AC%7CWj%DF%83%9An%BCG%AE%F1%95%96yQ%0Dq%5Dy%00%3Et%B5'%FC6%5DS%95pV%95%01%81%FF'%07%00%00%00%00%00%00%00%00%00%F8x%C7%F0%BE%9COp%5D%C9%7C%AD%E7%E6%EBV%FB%1E%E0(%07%E5%AC%C6%3A%ABi%9C%8F%C6%0E9%AB%C0'%D2%8E%9F%F99%D0E%B5%99%14%F5%0D%CD%7F%24%C6%DEH%B8%E9rV%DFs%DB%D0%F7%00k%FE%1D%84%84%83J%B8%E3%BA%FB%EF%20%84%1C%D7%AD%B0%8E%D7U%C8Y%05%1E%D4t%EF%AD%95Q%BF8w%BF%E9%0A%BF%EB%03%00%00%00%00%00%00%00%00%00%B8vJ%8E%BB%F5%B1u%8Cx%80%E1o%5E%CA9%AB%CB%CB%8E%03%DF%1D%B7T%25%9C%D5(%EFJM8%AB%CC'%D2%B2*%A4s%E7c6%FB%3E%FA%A2%1E%80~%0E%3E%DA%10x%5D%95Uig%15u%15%ED%7C%14%B6%87%A1%3B%FCo8%A8%D8o%D3%ADO%01%EDx%83%1A~%1B%9FpP%A3%DC%C6'%9C%95gK%00%00%00%00%00%00%00%00%00%20%D9%C9%11%D0%C0%40%AF%3F%EE%EE%92%94%D6%16X%B5%BCMH%15%2F%BF%D4%A7%C87%F1%8E%F2%81%AE%AAvzr%DA2%ABV%17%7C%E63%83%E7I%DC%C6%0Bs%1B%EF6%1E%00%00%00%00%00%00%00%00%00%80cr%9CW%FF%7F%C6%01%0E%F1%CE%A5%84%B3%CA%BC%E0%CB%AA%84%CE%F9%BF)%EC%13%08WU%AE%AB%B1%AE%2BO%EC%8E%CBYe%FE%8CN%ABr%5Dy%60~%CFA%0D%F4%AE%D4%BE%C75%CA%EDVB%EA(%B7%F1%09g%E5%D9%12%00%00%00%00%00%00%00%00%00H%F6%EB%13S%E7y%5E%5E%FB%98%F0%22%D1%B2'%A7%F0%92%B1%BC%24z3%AC%7Dm%60%D5%92%B4%7CEUO%5E%F0%AA*%3BU%B9%AE%3E%A0j%94%07%A0%C7%A0%AB%FD%B5%3F%A0%F7%03T%3Dy%D7%F7%D6%D4%C0%AAU%D2%E6%DFt%3F%A8%CC%AA%F2%86%B9%D7%F5%1F%18%E6%01%F8%CC%D5%9E%F0%F3z%88%AA%90%EF%20%00%00%00%00%00%00%00%00%00%C0%A6%D3%EA%CFi%AFb%2C%7BB%0A%2B%C3%1A%D7%06V%D5%07%A8r%5D%3D%D9%A6%CAu%F5%25%CF%A2%99%97zNX%60%95%AB%5DUZ%D5%FBR%03%AB%1C%D4k%9F%3F%BB%5C%FF%81a%AE%AB'%7F%F3%EA%FE%F3z%94%AA%D8%DF%5B%01%00%00%00%00%00%00%00%00%00%8E%FB%F3%F2%B1%1B%8DWU%AAT%A9R%A5J%95*U%AAT%A9R%A5J%95*U%AAT%A9R%A5J%95*U%AAT%A9R%A5J%95*U%AAT%A9R%A5J%95*U%AAT%A9R%A5J%95*U%AAT%A9R%A5J%95*UiU%C7%BBe%E7%F3%B9%CB%AAJ%95*U%AAT%A9R%A5J%95*U%AAT%A9R%A5J%95*U%AAT%A9R%A5J%95*U%AAT%A9R%A5J%95*U%AAT%A9R%A5J%95*U%AAT%A9R%A5J%95*U%AAT%A9R%A5*%AAj%FD%C6%D4%5Eo%90%B5Z%ADV%AB%D5j%B5Z%ADV%AB%D5j%B5Z%ADV%AB%D5j%B5Z%ADV%AB%D5j%B5Z%ADV%AB%D5j%B5Z%ADV%AB%D5j%B5Z%ADV%AB%D5j%B5%86%AF%1B%9F%98%DA%EBm%BBV%AB%D5j%B5Z%ADV%AB%D5j%B5Z%ADV%AB%D5j%B5Z%ADV%AB%D5j%B5Z%ADV%AB%D5j%B5Z%ADV%AB%D5j%B5Z%ADV%AB%D5j%B5Z%AD%D6%E4%F58%01%00%00%00%00%00%00%00%00%00%00%00%00%00%40%85%7F%02%0C%008%C2%D0H%16j%8FX%00%00%00%00IEND%AEB%60%82") repeat-x !important;
    border-top: 1px solid #BBBBBB !important;
    border-right: 1px dashed #BBBBBB !important;
    border-bottom: 1px solid #000000 !important;
}

.firebugRulerV {
    top: 0 !important;
    left: -15px !important;
    width: 14px !important;
    height: 100% !important;
    background: url("data:image/png,%89PNG%0D%0A%1A%0A%00%00%00%0DIHDR%00%00%00%0E%00%00%13%88%08%02%00%00%00%0E%F5%CB%10%00%00%00%04gAMA%00%00%D6%D8%D4OX2%00%00%00%19tEXtSoftware%00Adobe%20ImageReadyq%C9e%3C%00%00%06~IDATx%DA%EC%DD%D1v%A20%14%40Qt%F1%FF%FF%E4%97%D9%07%3BT%19%92%DC%40(%90%EEy%9A5%CB%B6%E8%F6%9Ac%A4%CC0%84%FF%DC%9E%CF%E7%E3%F1%88%DE4%F8%5D%C7%9F%2F%BA%DD%5E%7FI%7D%F18%DDn%BA%C5%FB%DF%97%BFk%F2%10%FF%FD%B4%F2M%A7%FB%FD%FD%B3%22%07p%8F%3F%AE%E3%F4S%8A%8F%40%EEq%9D%BE8D%F0%0EY%A1Uq%B7%EA%1F%81%88V%E8X%3F%B4%CEy%B7h%D1%A2E%EBohU%FC%D9%AF2fO%8BBeD%BE%F7X%0C%97%A4%D6b7%2Ck%A5%12%E3%9B%60v%B7r%C7%1AI%8C%BD%2B%23r%00c0%B2v%9B%AD%CA%26%0C%1Ek%05A%FD%93%D0%2B%A1u%8B%16-%95q%5Ce%DCSO%8E%E4M%23%8B%F7%C2%FE%40%BB%BD%8C%FC%8A%B5V%EBu%40%F9%3B%A72%FA%AE%8C%D4%01%CC%B5%DA%13%9CB%AB%E2I%18%24%B0n%A9%0CZ*Ce%9C%A22%8E%D8NJ%1E%EB%FF%8F%AE%CAP%19*%C3%BAEKe%AC%D1%AAX%8C*%DEH%8F%C5W%A1e%AD%D4%B7%5C%5B%19%C5%DB%0D%EF%9F%19%1D%7B%5E%86%BD%0C%95%A12%AC%5B*%83%96%CAP%19%F62T%86%CAP%19*%83%96%CA%B8Xe%BC%FE)T%19%A1%17xg%7F%DA%CBP%19*%C3%BA%A52T%86%CAP%19%F62T%86%CA%B0n%A9%0CZ%1DV%C6%3D%F3%FCH%DE%B4%B8~%7F%5CZc%F1%D6%1F%AF%84%F9%0F6%E6%EBVt9%0E~%BEr%AF%23%B0%97%A12T%86%CAP%19%B4T%86%CA%B8Re%D8%CBP%19*%C3%BA%A52huX%19%AE%CA%E5%BC%0C%7B%19*CeX%B7h%A9%0C%95%E1%BC%0C%7B%19*CeX%B7T%06%AD%CB%5E%95%2B%BF.%8F%C5%97%D5%E4%7B%EE%82%D6%FB%CF-%9C%FD%B9%CF%3By%7B%19%F62T%86%CA%B0n%D1R%19*%A3%D3%CA%B0%97%A12T%86uKe%D0%EA%B02*%3F1%99%5DB%2B%A4%B5%F8%3A%7C%BA%2B%8Co%7D%5C%EDe%A8%0C%95a%DDR%19%B4T%C66%82fA%B2%ED%DA%9FC%FC%17GZ%06%C9%E1%B3%E5%2C%1A%9FoiB%EB%96%CA%A0%D5qe4%7B%7D%FD%85%F7%5B%ED_%E0s%07%F0k%951%ECr%0D%B5C%D7-g%D1%A8%0C%EB%96%CA%A0%A52T%C6)*%C3%5E%86%CAP%19%D6-%95A%EB*%95q%F8%BB%E3%F9%AB%F6%E21%ACZ%B7%22%B7%9B%3F%02%85%CB%A2%5B%B7%BA%5E%B7%9C%97%E1%BC%0C%EB%16-%95%A12z%AC%0C%BFc%A22T%86uKe%D0%EA%B02V%DD%AD%8A%2B%8CWhe%5E%AF%CF%F5%3B%26%CE%CBh%5C%19%CE%CB%B0%F3%A4%095%A1%CAP%19*Ce%A8%0C%3BO*Ce%A8%0C%95%A12%3A%AD%8C%0A%82%7B%F0v%1F%2FD%A9%5B%9F%EE%EA%26%AF%03%CA%DF9%7B%19*Ce%A8%0C%95%A12T%86%CA%B8Ze%D8%CBP%19*Ce%A8%0C%95%D1ae%EC%F7%89I%E1%B4%D7M%D7P%8BjU%5C%BB%3E%F2%20%D8%CBP%19*Ce%A8%0C%95%A12T%C6%D5*%C3%5E%86%CAP%19*Ce%B4O%07%7B%F0W%7Bw%1C%7C%1A%8C%B3%3B%D1%EE%AA%5C%D6-%EBV%83%80%5E%D0%CA%10%5CU%2BD%E07YU%86%CAP%19*%E3%9A%95%91%D9%A0%C8%AD%5B%EDv%9E%82%FFKOee%E4%8FUe%A8%0C%95%A12T%C6%1F%A9%8C%C8%3D%5B%A5%15%FD%14%22r%E7B%9F%17l%F8%BF%ED%EAf%2B%7F%CF%ECe%D8%CBP%19*Ce%A8%0C%95%E1%93~%7B%19%F62T%86%CAP%19*Ce%A8%0C%E7%13%DA%CBP%19*Ce%A8%0CZf%8B%16-Z%B4h%D1R%19f%8B%16-Z%B4h%D1R%19%B4%CC%16-Z%B4h%D1R%19%B4%CC%16-Z%B4h%D1%A2%A52%CC%16-Z%B4h%D1%A2%A52h%99-Z%B4h%D1%A2%A52h%99-Z%B4h%D1%A2EKe%98-Z%B4h%D1%A2EKe%D02%5B%B4h%D1%A2EKe%D02%5B%B4h%D1%A2E%8B%96%CA0%5B%B4h%D1%A2E%8B%96%CA%A0e%B6h%D1%A2E%8B%96%CA%A0e%B6h%D1%A2E%8B%16-%95a%B6h%D1%A2E%8B%16-%95A%CBl%D1%A2E%8B%16-%95A%CBl%D1%A2E%8B%16-Z*%C3l%D1%A2E%8B%16-Z*%83%96%D9%A2E%8B%16-Z*%83%96%D9%A2E%8B%16-Z%B4T%86%D9%A2E%8B%16-Z%B4T%06-%B3E%8B%16-Z%B4T%06-%B3E%8B%16-Z%B4h%A9%0C%B3E%8B%16-Z%B4h%A9%0CZf%8B%16-Z%B4h%A9%0CZf%8B%16-Z%B4h%D1R%19f%8B%16-Z%B4h%D1R%19%B4%CC%16-Z%B4h%D1R%19%B4%CC%16-Z%B4h%D1%A2%A52%CC%16-Z%B4h%D1%A2%A52h%99-Z%B4h%D1%A2%A52h%99-Z%B4h%D1%A2EKe%98-Z%B4h%D1%A2EKe%D02%5B%B4h%D1%A2EKe%D02%5B%B4h%D1%A2E%8B%96%CA0%5B%B4h%D1%A2E%8B%96%CA%A0e%B6h%D1%A2E%8B%96%CA%A0e%B6h%D1%A2E%8B%16-%95a%B6h%D1%A2E%8B%16-%95A%CBl%D1%A2E%8B%16-%95A%CBl%D1%A2E%8B%16-Z*%C3l%D1%A2E%8B%16-Z*%83%96%D9%A2E%8B%16-Z*%83%96%D9%A2E%8B%16-Z%B4T%86%D9%A2E%8B%16-Z%B4T%06-%B3E%8B%16-Z%B4T%06-%B3E%8B%16-Z%B4h%A9%0C%B3E%8B%16-Z%B4h%A9%0CZf%8B%16-Z%B4h%A9%0CZf%8B%16-Z%B4h%D1R%19f%8B%16-Z%B4h%D1R%19%B4%CC%16-Z%B4h%D1R%19%B4%CC%16-Z%B4h%D1%A2%A52%CC%16-Z%B4h%D1%A2%A52h%99-Z%B4h%D1%A2%A52h%99-Z%B4h%D1%A2EKe%98-Z%B4h%D1%A2EKe%D02%5B%B4h%D1%A2EKe%D02%5B%B4h%D1%A2E%8B%96%CA0%5B%B4h%D1%A2E%8B%96%CA%A0e%B6h%D1%A2E%8B%96%CA%A0e%B6h%D1%A2E%8B%16-%95a%B6h%D1%A2E%8B%16-%95A%CBl%D1%A2E%8B%16-%95A%CBl%D1%A2E%8B%16-Z*%C3l%D1%A2E%8B%16-Z*%83%96%D9%A2E%8B%16-Z*%83%96%D9%A2E%8B%16-Z%B4T%86%D9%A2E%8B%16-Z%B4T%06-%B3E%8B%16-Z%B4%AE%A4%F5%25%C0%00%DE%BF%5C'%0F%DA%B8q%00%00%00%00IEND%AEB%60%82") repeat-y !important;
    border-left: 1px solid #BBBBBB !important;
    border-right: 1px solid #000000 !important;
    border-bottom: 1px dashed #BBBBBB !important;
}

.overflowRulerX &gt; .firebugRulerV {
    left: 0 !important;
}

.overflowRulerY &gt; .firebugRulerH {
    top: 0 !important;
}

/* * * * * * * * * * * * * * * * * * * * * * * * * * * * * * * * * * * * * * * * * * * * * * * * */
.fbProxyElement {
    position: fixed !important;
    pointer-events: auto !important;
}
</style></svg>